<?xml version="1.0" encoding="UTF-8" standalone="no"?>
<svg
   xmlns:dc="http://purl.org/dc/elements/1.1/"
   xmlns:cc="http://creativecommons.org/ns#"
   xmlns:rdf="http://www.w3.org/1999/02/22-rdf-syntax-ns#"
   xmlns:svg="http://www.w3.org/2000/svg"
   xmlns="http://www.w3.org/2000/svg"
   xmlns:sodipodi="http://sodipodi.sourceforge.net/DTD/sodipodi-0.dtd"
   xmlns:inkscape="http://www.inkscape.org/namespaces/inkscape"
   version="1.1"
   viewBox="0 0 708 364"
   stroke-miterlimit="10"
   id="svg81"
   sodipodi:docname="dataframe.svg"
   width="708"
   height="364"
   style="fill:none;stroke:none;stroke-linecap:square;stroke-miterlimit:10"
   inkscape:version="0.92.5 (2060ec1f9f, 2020-04-08)">
  <metadata
     id="metadata87">
    <rdf:RDF>
      <cc:Work
         rdf:about="">
        <dc:format>image/svg+xml</dc:format>
        <dc:type
           rdf:resource="http://purl.org/dc/dcmitype/StillImage" />
        <dc:title />
      </cc:Work>
    </rdf:RDF>
  </metadata>
  <defs
     id="defs85" />
  <sodipodi:namedview
     pagecolor="#ffffff"
     bordercolor="#666666"
     borderopacity="1"
     objecttolerance="10"
     gridtolerance="10"
     guidetolerance="10"
     inkscape:pageopacity="0"
     inkscape:pageshadow="2"
     inkscape:window-width="1848"
     inkscape:window-height="1016"
     id="namedview83"
     showgrid="false"
     inkscape:zoom="5.1117928"
     inkscape:cx="484.14612"
     inkscape:cy="98.11872"
     inkscape:window-x="72"
     inkscape:window-y="27"
     inkscape:window-maximized="1"
     inkscape:current-layer="g79" />
  <clipPath
     id="p.0">
    <path
       d="M 0,0 H 768 V 384 H 0 Z"
       id="path2"
       inkscape:connector-curvature="0"
       style="clip-rule:nonzero" />
  </clipPath>
  <g
     clip-path="url(#p.0)"
     id="g79"
     transform="translate(0,-20)">
    <rect
       style="fill:#e6e6e6;fill-opacity:1;stroke:#000000;stroke-width:2;stroke-linecap:butt;stroke-linejoin:round;stroke-miterlimit:4;stroke-dasharray:none;stroke-dashoffset:0;stroke-opacity:1"
       id="rect1052"
       width="612.02765"
       height="274.85742"
       x="49.18853"
       y="79.407402"
       ry="0" />
    <path
       d="M 80.157033,96.259815 H 756.53494 V 276.2913 H 80.157033 Z"
       id="path11"
       inkscape:connector-curvature="0"
       style="fill:#000000;fill-opacity:0;fill-rule:evenodd" />
    <path
       d="M 49.188529,37.391654 H 214.92081 V 79.407401 H 49.188529 Z"
       id="path51"
       inkscape:connector-curvature="0"
       style="fill:#000000;fill-opacity:0;fill-rule:evenodd" />
    <path
       d="m 59.454154,54.639777 h 2.390623 v 1.421875 q 0.46875,-0.734375 1.25,-1.1875 0.796875,-0.453125 1.765625,-0.453125 1.6875,0 2.859375,1.328125 1.171875,1.3125 1.171875,3.671875 0,2.421875 -1.1875,3.765625 -1.1875,1.34375 -2.859375,1.34375 -0.8125,0 -1.46875,-0.3125 -0.640625,-0.328125 -1.359375,-1.09375 v 4.875 h -2.562498 z m 2.531248,4.671875 q 0,1.625 0.640625,2.40625 0.65625,0.78125 1.578125,0.78125 0.90625,0 1.484375,-0.71875 0.59375,-0.71875 0.59375,-2.34375 0,-1.515625 -0.609375,-2.25 -0.609375,-0.75 -1.515625,-0.75 -0.9375,0 -1.5625,0.734375 -0.609375,0.71875 -0.609375,2.140625 z m 17.817856,5 h -2.390625 v -1.421875 q -0.59375,0.828125 -1.40625,1.234375 -0.796875,0.40625 -1.609375,0.40625 -1.671875,0 -2.859375,-1.34375 -1.1875,-1.34375 -1.1875,-3.75 0,-2.453125 1.15625,-3.734375 1.15625,-1.28125 2.921875,-1.28125 1.625,0 2.8125,1.34375 v -4.8125 h 2.5625 z m -6.84375,-5.046875 q 0,1.546875 0.4375,2.234375 0.609375,1.015625 1.71875,1.015625 0.890625,0 1.5,-0.75 0.625,-0.765625 0.625,-2.25 0,-1.671875 -0.609375,-2.40625 -0.59375,-0.734375 -1.53125,-0.734375 -0.90625,0 -1.53125,0.734375 -0.609375,0.71875 -0.609375,2.15625 z m 9.364731,5.046875 v -2.5625 h 2.5625 v 2.5625 z m 5.183304,-13.359375 h 4.9375 q 1.65625,0 2.53125,0.265625 1.1875,0.34375 2.015625,1.234375 0.84375,0.875 1.28125,2.15625 0.4375,1.28125 0.4375,3.15625 0,1.640625 -0.40625,2.84375 -0.5,1.453125 -1.4375,2.359375 -0.703125,0.671875 -1.890625,1.0625 -0.890625,0.28125 -2.390625,0.28125 h -5.078125 z m 2.703125,2.265625 v 8.84375 h 2.015625 q 1.125,0 1.625,-0.125 0.65625,-0.171875 1.078125,-0.5625 0.4375,-0.390625 0.703125,-1.28125 0.28125,-0.90625 0.28125,-2.453125 0,-1.546875 -0.28125,-2.375 -0.265625,-0.828125 -0.765625,-1.28125 -0.484375,-0.46875 -1.234375,-0.640625 -0.5625,-0.125 -2.21875,-0.125 z m 12.676072,4.375 -2.32813,-0.421875 q 0.40625,-1.40625 1.35938,-2.078125 0.95312,-0.671875 2.84375,-0.671875 1.70312,0 2.54687,0.40625 0.84375,0.40625 1.17188,1.03125 0.34375,0.625 0.34375,2.28125 l -0.0156,3 q 0,1.265625 0.10937,1.875 0.125,0.609375 0.46875,1.296875 h -2.53125 q -0.10937,-0.25 -0.25,-0.75 -0.0625,-0.234375 -0.0937,-0.3125 -0.65625,0.640625 -1.40625,0.96875 -0.73437,0.3125 -1.59375,0.3125 -1.48437,0 -2.34375,-0.8125 -0.85937,-0.8125 -0.85937,-2.046875 0,-0.828125 0.39062,-1.46875 0.39063,-0.640625 1.09375,-0.96875 0.70313,-0.34375 2.03125,-0.609375 1.79688,-0.328125 2.48438,-0.625 v -0.25 q 0,-0.75 -0.35938,-1.0625 -0.35937,-0.3125 -1.375,-0.3125 -0.6875,0 -1.07812,0.28125 -0.375,0.265625 -0.60938,0.9375 z m 3.42187,2.078125 q -0.48437,0.15625 -1.5625,0.390625 -1.0625,0.21875 -1.39062,0.4375 -0.5,0.359375 -0.5,0.90625 0,0.53125 0.40625,0.9375 0.40625,0.390625 1.01562,0.390625 0.70313,0 1.32813,-0.46875 0.46875,-0.34375 0.60937,-0.84375 0.0937,-0.328125 0.0937,-1.25 z m 9.4851,-5.03125 v 2.03125 h -1.75 v 3.90625 q 0,1.1875 0.0469,1.390625 0.0469,0.1875 0.21875,0.3125 0.1875,0.125 0.4375,0.125 0.35937,0 1.03125,-0.25 l 0.21875,2 q -0.89063,0.375 -2.01563,0.375 -0.70312,0 -1.26562,-0.234375 -0.54688,-0.234375 -0.8125,-0.59375 -0.25,-0.375 -0.34375,-1 -0.0937,-0.453125 -0.0937,-1.8125 v -4.21875 h -1.17187 v -2.03125 h 1.17187 v -1.921875 l 2.57813,-1.5 v 3.421875 z m 3.68142,2.953125 -2.32812,-0.421875 q 0.40625,-1.40625 1.35937,-2.078125 0.95313,-0.671875 2.84375,-0.671875 1.70313,0 2.54688,0.40625 0.84375,0.40625 1.17187,1.03125 0.34375,0.625 0.34375,2.28125 l -0.0156,3 q 0,1.265625 0.10938,1.875 0.125,0.609375 0.46875,1.296875 h -2.53125 q -0.10938,-0.25 -0.25,-0.75 -0.0625,-0.234375 -0.0937,-0.3125 -0.65625,0.640625 -1.40625,0.96875 -0.73438,0.3125 -1.59375,0.3125 -1.48438,0 -2.34375,-0.8125 -0.85938,-0.8125 -0.85938,-2.046875 0,-0.828125 0.39063,-1.46875 0.39062,-0.640625 1.09375,-0.96875 0.70312,-0.34375 2.03125,-0.609375 1.79687,-0.328125 2.48437,-0.625 v -0.25 q 0,-0.75 -0.35937,-1.0625 -0.35938,-0.3125 -1.375,-0.3125 -0.6875,0 -1.07813,0.28125 -0.375,0.265625 -0.60937,0.9375 z m 3.42188,2.078125 q -0.48438,0.15625 -1.5625,0.390625 -1.0625,0.21875 -1.39063,0.4375 -0.5,0.359375 -0.5,0.90625 0,0.53125 0.40625,0.9375 0.40625,0.390625 1.01563,0.390625 0.70312,0 1.32812,-0.46875 0.46875,-0.34375 0.60938,-0.84375 0.0937,-0.328125 0.0937,-1.25 z m 5.07884,4.640625 V 50.952277 h 9.15625 v 2.265625 h -6.45312 v 3.15625 h 5.5625 v 2.265625 h -5.5625 v 5.671875 z m 13.81786,0 h -2.5625 v -9.671875 h 2.375 v 1.375 q 0.60937,-0.984375 1.09375,-1.28125 0.48437,-0.3125 1.10937,-0.3125 0.875,0 1.6875,0.484375 l -0.79687,2.234375 q -0.64063,-0.421875 -1.20313,-0.421875 -0.53125,0 -0.90625,0.296875 -0.375,0.296875 -0.59375,1.078125 -0.20312,0.765625 -0.20312,3.234375 z m 6.71339,-6.71875 -2.32812,-0.421875 q 0.40625,-1.40625 1.35937,-2.078125 0.95313,-0.671875 2.84375,-0.671875 1.70313,0 2.54688,0.40625 0.84375,0.40625 1.17187,1.03125 0.34375,0.625 0.34375,2.28125 l -0.0156,3 q 0,1.265625 0.10937,1.875 0.125,0.609375 0.46875,1.296875 h -2.53125 q -0.10937,-0.25 -0.25,-0.75 -0.0625,-0.234375 -0.0937,-0.3125 -0.65625,0.640625 -1.40625,0.96875 -0.73437,0.3125 -1.59375,0.3125 -1.48437,0 -2.34375,-0.8125 -0.85937,-0.8125 -0.85937,-2.046875 0,-0.828125 0.39062,-1.46875 0.39063,-0.640625 1.09375,-0.96875 0.70313,-0.34375 2.03125,-0.609375 1.79688,-0.328125 2.48438,-0.625 v -0.25 q 0,-0.75 -0.35938,-1.0625 -0.35937,-0.3125 -1.375,-0.3125 -0.6875,0 -1.07812,0.28125 -0.375,0.265625 -0.60938,0.9375 z m 3.42188,2.078125 q -0.48438,0.15625 -1.5625,0.390625 -1.0625,0.21875 -1.39063,0.4375 -0.5,0.359375 -0.5,0.90625 0,0.53125 0.40625,0.9375 0.40625,0.390625 1.01563,0.390625 0.70312,0 1.32812,-0.46875 0.46875,-0.34375 0.60938,-0.84375 0.0937,-0.328125 0.0937,-1.25 z m 4.84447,-5.03125 h 2.35937 v 1.3125 q 1.26563,-1.53125 3.01563,-1.53125 0.9375,0 1.60937,0.390625 0.6875,0.375 1.125,1.140625 0.64063,-0.765625 1.375,-1.140625 0.75,-0.390625 1.57813,-0.390625 1.0625,0 1.79687,0.4375 0.75,0.421875 1.10938,1.265625 0.26562,0.625 0.26562,2 v 6.1875 h -2.5625 v -5.53125 q 0,-1.4375 -0.26562,-1.859375 -0.34375,-0.546875 -1.09375,-0.546875 -0.53125,0 -1.01563,0.328125 -0.46875,0.328125 -0.67187,0.96875 -0.20313,0.625 -0.20313,2 v 4.640625 h -2.5625 v -5.296875 q 0,-1.421875 -0.14062,-1.828125 -0.14063,-0.40625 -0.42188,-0.609375 -0.28125,-0.203125 -0.78125,-0.203125 -0.59375,0 -1.0625,0.328125 -0.46875,0.3125 -0.6875,0.921875 -0.20312,0.59375 -0.20312,1.984375 v 4.703125 h -2.5625 z m 22.38527,6.59375 2.54687,0.421875 q -0.48437,1.40625 -1.54687,2.140625 -1.0625,0.734375 -2.65625,0.734375 -2.51563,0 -3.73438,-1.65625 -0.95312,-1.3125 -0.95312,-3.328125 0,-2.40625 1.25,-3.765625 1.26562,-1.359375 3.1875,-1.359375 2.15625,0 3.40625,1.421875 1.25,1.421875 1.1875,4.375 h -6.40625 q 0.0312,1.140625 0.60937,1.78125 0.59375,0.625 1.48438,0.625 0.59375,0 1,-0.328125 0.42187,-0.328125 0.625,-1.0625 z m 0.15625,-2.59375 q -0.0312,-1.109375 -0.57813,-1.6875 -0.54687,-0.578125 -1.32812,-0.578125 -0.84375,0 -1.39063,0.609375 -0.54687,0.609375 -0.53125,1.65625 z"
       id="path53"
       inkscape:connector-curvature="0"
       style="fill:#000000;fill-rule:nonzero" />
    <path
       d="m 79.90769,126.77747 h 140.66142 v 195.1496 H 79.90769 Z"
       id="path55"
       inkscape:connector-curvature="0"
       style="fill:#000000;fill-opacity:0;fill-rule:evenodd" />
    <path
       d="M 79.90769,126.77748 H 220.56911 V 297.27819 H 79.90769 Z"
       id="path57"
       style="fill-rule:evenodd;stroke:#0055d4;stroke-width:2;stroke-linecap:butt;stroke-linejoin:round;stroke-dasharray:8, 6"
       inkscape:connector-curvature="0"
       sodipodi:nodetypes="ccccc" />
    <path
       d="M 230.0993,96.259815 H 756.5245 V 138.27555 H 230.0993 Z"
       id="path59"
       inkscape:connector-curvature="0"
       style="fill:#000000;fill-opacity:0;fill-rule:evenodd" />
    <path
       d="m 230.0993,126.77748 h 387.53068 v 42.01574 H 230.0993 Z"
       id="path61"
       style="fill-rule:evenodd;stroke:#0055d4;stroke-width:2;stroke-linecap:butt;stroke-linejoin:round;stroke-dasharray:8, 6"
       inkscape:connector-curvature="0"
       sodipodi:nodetypes="ccccc" />
    <path
       d="M 79.90769,84.761734 H 220.56911 V 126.77748 H 79.90769 Z"
       id="path67"
       inkscape:connector-curvature="0"
       style="fill:#000000;fill-opacity:0;fill-rule:evenodd" />
    <path
       d="m 90.25144,100.69735 v -2.374995 h 2.5625 v 2.374995 z m 0,10.98437 v -9.67187 h 2.5625 v 9.67187 z m 13.98018,0 h -2.5625 v -4.9375 q 0,-1.5625 -0.17188,-2.01562 -0.15625,-0.46875 -0.53125,-0.71875 -0.35937,-0.26563 -0.875,-0.26563 -0.671871,0 -1.203121,0.375 -0.53125,0.35938 -0.734375,0.96875 -0.1875,0.59375 -0.1875,2.21875 v 4.375 h -2.546875 v -9.67187 h 2.375 v 1.42187 q 1.265625,-1.64062 3.187501,-1.64062 0.84375,0 1.54687,0.3125 0.70313,0.29687 1.0625,0.78125 0.35938,0.46875 0.5,1.07812 0.14063,0.59375 0.14063,1.70313 z m 11.47411,0 h -2.39063 v -1.42187 q -0.59375,0.82812 -1.40625,1.23437 -0.79687,0.40625 -1.60937,0.40625 -1.67188,0 -2.85938,-1.34375 -1.1875,-1.34375 -1.1875,-3.75 0,-2.45312 1.15625,-3.73437 1.15625,-1.28125 2.92188,-1.28125 1.625,0 2.8125,1.34375 v -4.812495 h 2.5625 z m -6.84375,-5.04687 q 0,1.54687 0.4375,2.23437 0.60937,1.01563 1.71875,1.01563 0.89062,0 1.5,-0.75 0.625,-0.76563 0.625,-2.25 0,-1.67188 -0.60938,-2.40625 -0.59375,-0.73438 -1.53125,-0.73438 -0.90625,0 -1.53125,0.73438 -0.60937,0.71875 -0.60937,2.15625 z m 14.95848,1.96875 2.54687,0.42187 q -0.48437,1.40625 -1.54687,2.14063 -1.0625,0.73437 -2.65625,0.73437 -2.51563,0 -3.73438,-1.65625 -0.95312,-1.3125 -0.95312,-3.32812 0,-2.40625 1.25,-3.76563 1.26562,-1.35937 3.1875,-1.35937 2.15625,0 3.40625,1.42187 1.25,1.42188 1.1875,4.375 h -6.40625 q 0.0312,1.14063 0.60937,1.78125 0.59375,0.625 1.48438,0.625 0.59375,0 1,-0.32812 0.42187,-0.32813 0.625,-1.0625 z m 0.15625,-2.59375 q -0.0312,-1.10938 -0.57813,-1.6875 -0.54687,-0.57813 -1.32812,-0.57813 -0.84375,0 -1.39063,0.60938 -0.54687,0.60937 -0.53125,1.65625 z m 3.39134,5.67187 3.48438,-4.98437 -3.34376,-4.6875 h 3.12501 l 1.71875,2.65625 1.79687,-2.65625 h 3.01563 l -3.28125,4.57812 3.57812,5.09375 h -3.14062 l -1.96875,-3 -1.98438,3 z"
       id="path69"
       inkscape:connector-curvature="0"
       style="fill:#000000;fill-rule:nonzero" />
    <path
       d="M 230.0993,84.761734 H 370.7607 V 126.77748 H 230.0993 Z"
       id="path71"
       inkscape:connector-curvature="0"
       style="fill:#000000;fill-opacity:0;fill-rule:evenodd" />
    <path
       d="m 248.88055,104.86923 -2.53125,0.45312 q -0.125,-0.75 -0.57813,-1.125 -0.45312,-0.39062 -1.17187,-0.39062 -0.95313,0 -1.53125,0.65625 -0.5625,0.65625 -0.5625,2.20312 0,1.73438 0.57812,2.4375 0.57813,0.70313 1.54688,0.70313 0.73437,0 1.20312,-0.40625 0.46875,-0.42188 0.65625,-1.42188 l 2.51563,0.42188 q -0.39063,1.73437 -1.51563,2.625 -1.10937,0.875 -2.96875,0.875 -2.125,0 -3.39062,-1.32813 -1.25,-1.34375 -1.25,-3.71875 0,-2.39062 1.26562,-3.71875 1.26563,-1.34375 3.42188,-1.34375 1.76562,0 2.79687,0.76563 1.04688,0.75 1.51563,2.3125 z m 1.34447,1.84375 q 0,-1.28125 0.625,-2.46875 0.625,-1.20313 1.78125,-1.82813 1.15625,-0.625 2.57812,-0.625 2.1875,0 3.59375,1.42188 1.40625,1.42187 1.40625,3.60937 0,2.1875 -1.42187,3.64063 -1.42188,1.4375 -3.5625,1.4375 -1.32813,0 -2.54688,-0.59375 -1.20312,-0.60938 -1.82812,-1.76563 -0.625,-1.17187 -0.625,-2.82812 z m 2.625,0.125 q 0,1.45312 0.67187,2.21875 0.6875,0.75 1.6875,0.75 1,0 1.67188,-0.75 0.6875,-0.76563 0.6875,-2.23438 0,-1.42187 -0.6875,-2.1875 -0.67188,-0.76562 -1.67188,-0.76562 -1,0 -1.6875,0.76562 -0.67187,0.76563 -0.67187,2.20313 z m 9.36473,4.84375 V 98.322355 h 2.5625 v 13.359375 z m 11.54268,0 v -1.45313 q -0.53125,0.78125 -1.39063,1.23438 -0.85937,0.4375 -1.8125,0.4375 -0.96875,0 -1.75,-0.42188 -0.76562,-0.4375 -1.125,-1.20312 -0.34375,-0.78125 -0.34375,-2.14063 v -6.125 h 2.5625 v 4.4375 q 0,2.04688 0.14063,2.51563 0.14062,0.45312 0.51562,0.71875 0.375,0.26562 0.95313,0.26562 0.65625,0 1.17187,-0.35937 0.51563,-0.35938 0.70313,-0.89063 0.20312,-0.53125 0.20312,-2.60937 v -4.07813 h 2.54688 v 9.67188 z m 4.83348,-9.67188 h 2.35937 v 1.3125 q 1.26563,-1.53125 3.01563,-1.53125 0.9375,0 1.60937,0.39063 0.6875,0.375 1.125,1.14062 0.64063,-0.76562 1.375,-1.14062 0.75,-0.39063 1.57813,-0.39063 1.0625,0 1.79687,0.4375 0.75,0.42188 1.10938,1.26563 0.26562,0.625 0.26562,2 v 6.1875 h -2.5625 v -5.53125 q 0,-1.4375 -0.26562,-1.85938 -0.34375,-0.54687 -1.09375,-0.54687 -0.53125,0 -1.01563,0.32812 -0.46875,0.32813 -0.67187,0.96875 -0.20313,0.625 -0.20313,2 v 4.64063 h -2.5625 v -5.29688 q 0,-1.42187 -0.14062,-1.82812 -0.14063,-0.40625 -0.42188,-0.60938 -0.28125,-0.20312 -0.78125,-0.20312 -0.59375,0 -1.0625,0.32812 -0.46875,0.3125 -0.6875,0.92188 -0.20312,0.59375 -0.20312,1.98437 v 4.70313 h -2.5625 z m 25.58838,9.67188 h -2.5625 v -4.9375 q 0,-1.5625 -0.17188,-2.01563 -0.15625,-0.46875 -0.53125,-0.71875 -0.35937,-0.26562 -0.875,-0.26562 -0.67187,0 -1.20312,0.375 -0.53125,0.35937 -0.73438,0.96875 -0.1875,0.59375 -0.1875,2.21875 v 4.375 h -2.54687 v -9.67188 h 2.375 v 1.42188 q 1.26562,-1.64063 3.1875,-1.64063 0.84375,0 1.54687,0.3125 0.70313,0.29688 1.0625,0.78125 0.35938,0.46875 0.5,1.07813 0.14063,0.59375 0.14063,1.70312 z m 1.69287,-2.76563 2.5625,-0.39062 q 0.17187,0.75 0.67187,1.14062 0.5,0.39063 1.40625,0.39063 0.98438,0 1.48438,-0.375 0.34375,-0.25 0.34375,-0.67188 0,-0.29687 -0.1875,-0.48437 -0.1875,-0.1875 -0.85938,-0.34375 -3.09375,-0.6875 -3.92187,-1.25 -1.14063,-0.78125 -1.14063,-2.17188 0,-1.26562 0.98438,-2.10937 1,-0.85938 3.07812,-0.85938 1.98438,0 2.95313,0.65625 0.96875,0.64063 1.32812,1.90625 l -2.40625,0.4375 q -0.15625,-0.5625 -0.59375,-0.85937 -0.42187,-0.29688 -1.23437,-0.29688 -1,0 -1.4375,0.28125 -0.29688,0.20313 -0.29688,0.51563 0,0.26562 0.25,0.46875 0.34375,0.25 2.39063,0.71875 2.04687,0.45312 2.85937,1.14062 0.79688,0.67188 0.79688,1.89063 0,1.34375 -1.10938,2.29687 -1.10937,0.95313 -3.28125,0.95313 -1.98437,0 -3.14062,-0.79688 -1.14063,-0.8125 -1.5,-2.1875 z"
       id="path73"
       inkscape:connector-curvature="0"
       style="fill:#000000;fill-rule:nonzero" />
    <path
       d="m 495.23061,312.57005 h 2.39062 v 1.42188 q 0.46875,-0.73438 1.25,-1.1875 0.79688,-0.45313 1.76563,-0.45313 1.6875,0 2.85937,1.32813 1.17188,1.3125 1.17188,3.67187 0,2.42188 -1.1875,3.76563 -1.1875,1.34375 -2.85938,1.34375 -0.8125,0 -1.46875,-0.3125 -0.64062,-0.32813 -1.35937,-1.09375 v 4.875 h -2.5625 z m 2.53125,4.67188 q 0,1.625 0.64062,2.40625 0.65625,0.78125 1.57813,0.78125 0.90625,0 1.48437,-0.71875 0.59375,-0.71875 0.59375,-2.34375 0,-1.51563 -0.60937,-2.25 -0.60938,-0.75 -1.51563,-0.75 -0.9375,0 -1.5625,0.73437 -0.60937,0.71875 -0.60937,2.14063 z m 17.81787,5 h -2.39063 v -1.42188 q -0.59375,0.82813 -1.40625,1.23438 -0.79687,0.40625 -1.60937,0.40625 -1.67188,0 -2.85938,-1.34375 -1.1875,-1.34375 -1.1875,-3.75 0,-2.45313 1.15625,-3.73438 1.15625,-1.28125 2.92188,-1.28125 1.625,0 2.8125,1.34375 v -4.8125 h 2.5625 z m -6.84375,-5.04688 q 0,1.54688 0.4375,2.23438 0.60937,1.01562 1.71875,1.01562 0.89062,0 1.5,-0.75 0.625,-0.76562 0.625,-2.25 0,-1.67187 -0.60938,-2.40625 -0.59375,-0.73437 -1.53125,-0.73437 -0.90625,0 -1.53125,0.73437 -0.60937,0.71875 -0.60937,2.15625 z m 9.36468,5.04688 v -2.5625 h 2.5625 v 2.5625 z m 4.51148,-4.34375 2.625,-0.25 q 0.23437,1.3125 0.95312,1.9375 0.73438,0.60937 1.96875,0.60937 1.29688,0 1.95313,-0.54687 0.67187,-0.54688 0.67187,-1.28125 0,-0.48438 -0.28125,-0.8125 -0.28125,-0.32813 -0.96875,-0.57813 -0.48437,-0.15625 -2.17187,-0.57812 -2.15625,-0.54688 -3.03125,-1.32813 -1.23438,-1.09375 -1.23438,-2.6875 0,-1.01562 0.57813,-1.90625 0.57812,-0.89062 1.65625,-1.34375 1.09375,-0.46875 2.64062,-0.46875 2.51563,0 3.78125,1.10938 1.28125,1.09375 1.34375,2.9375 l -2.70312,0.10937 q -0.17188,-1.03125 -0.75,-1.46875 -0.5625,-0.45312 -1.70313,-0.45312 -1.17187,0 -1.84375,0.46875 -0.42187,0.3125 -0.42187,0.84375 0,0.46875 0.40625,0.79687 0.5,0.4375 2.46875,0.90625 1.96875,0.45313 2.90625,0.95313 0.95312,0.5 1.48437,1.35937 0.53125,0.85938 0.53125,2.125 0,1.15625 -0.64062,2.15625 -0.64063,1 -1.8125,1.48438 -1.15625,0.48437 -2.89063,0.48437 -2.53125,0 -3.89062,-1.17187 -1.35938,-1.17188 -1.625,-3.40625 z m 18.70916,1.26562 2.54688,0.42188 q -0.48438,1.40625 -1.54688,2.14062 -1.0625,0.73438 -2.65625,0.73438 -2.51562,0 -3.73437,-1.65625 -0.95313,-1.3125 -0.95313,-3.32813 0,-2.40625 1.25,-3.76562 1.26563,-1.35938 3.1875,-1.35938 2.15625,0 3.40625,1.42188 1.25,1.42187 1.1875,4.375 h -6.40625 q 0.0312,1.14062 0.60938,1.78125 0.59375,0.625 1.48437,0.625 0.59375,0 1,-0.32813 0.42188,-0.32812 0.625,-1.0625 z m 0.15625,-2.59375 q -0.0312,-1.10937 -0.57812,-1.6875 -0.54688,-0.57812 -1.32813,-0.57812 -0.84375,0 -1.39062,0.60937 -0.54688,0.60938 -0.53125,1.65625 z m 7.07886,5.67188 h -2.5625 v -9.67188 h 2.375 v 1.375 q 0.60938,-0.98437 1.09375,-1.28125 0.48438,-0.3125 1.10938,-0.3125 0.875,0 1.6875,0.48438 l -0.79688,2.23437 q -0.64062,-0.42187 -1.20312,-0.42187 -0.53125,0 -0.90625,0.29687 -0.375,0.29688 -0.59375,1.07813 -0.20313,0.76562 -0.20313,3.23437 z m 4.80713,-10.98438 v -2.375 h 2.5625 v 2.375 z m 0,10.98438 v -9.67188 h 2.5625 v 9.67188 z m 10.77704,-3.07813 2.54687,0.42188 q -0.48437,1.40625 -1.54687,2.14062 -1.0625,0.73438 -2.65625,0.73438 -2.51563,0 -3.73438,-1.65625 -0.95312,-1.3125 -0.95312,-3.32813 0,-2.40625 1.25,-3.76562 1.26562,-1.35938 3.1875,-1.35938 2.15625,0 3.40625,1.42188 1.25,1.42187 1.1875,4.375 h -6.40625 q 0.0312,1.14062 0.60937,1.78125 0.59375,0.625 1.48438,0.625 0.59375,0 1,-0.32813 0.42187,-0.32812 0.625,-1.0625 z m 0.15625,-2.59375 q -0.0312,-1.10937 -0.57813,-1.6875 -0.54687,-0.57812 -1.32812,-0.57812 -0.84375,0 -1.39063,0.60937 -0.54687,0.60938 -0.53125,1.65625 z m 3.71948,2.90625 2.5625,-0.39062 q 0.17188,0.75 0.67188,1.14062 0.5,0.39063 1.40625,0.39063 0.98437,0 1.48437,-0.375 0.34375,-0.25 0.34375,-0.67188 0,-0.29687 -0.1875,-0.48437 -0.1875,-0.1875 -0.85937,-0.34375 -3.09375,-0.6875 -3.92188,-1.25 -1.14062,-0.78125 -1.14062,-2.17188 0,-1.26562 0.98437,-2.10937 1,-0.85938 3.07813,-0.85938 1.98437,0 2.95312,0.65625 0.96875,0.64063 1.32813,1.90625 l -2.40625,0.4375 q -0.15625,-0.5625 -0.59375,-0.85937 -0.42188,-0.29688 -1.23438,-0.29688 -1,0 -1.4375,0.28125 -0.29687,0.20313 -0.29687,0.51563 0,0.26562 0.25,0.46875 0.34375,0.25 2.39062,0.71875 2.04688,0.45312 2.85938,1.14062 0.79687,0.67188 0.79687,1.89063 0,1.34375 -1.10937,2.29687 -1.10938,0.95313 -3.28125,0.95313 -1.98438,0 -3.14063,-0.79688 -1.14062,-0.8125 -1.5,-2.1875 z"
       id="path77"
       inkscape:connector-curvature="0"
       style="fill:#000000;fill-rule:nonzero" />
    <text
       xml:space="preserve"
       style="font-style:normal;font-weight:normal;font-size:40px;line-height:1.25;font-family:sans-serif;letter-spacing:0px;word-spacing:0px;fill:#000000;fill-opacity:1;stroke:none"
       x="88.619827"
       y="192.83493"
       id="text910"><tspan
         sodipodi:role="line"
         x="88.619827"
         y="192.83493"
         id="tspan908"><tspan
           x="88.619827"
           y="192.83493"
           style="font-weight:bold;font-size:18.66666603px"
           id="tspan906">bridge</tspan></tspan></text>
    <text
       xml:space="preserve"
       style="font-style:normal;font-weight:normal;font-size:40px;line-height:1.25;font-family:sans-serif;letter-spacing:0px;word-spacing:0px;fill:#000000;fill-opacity:1;stroke:none"
       x="88.619827"
       y="218.4257"
       id="text916"><tspan
         sodipodi:role="line"
         x="88.619827"
         y="218.4257"
         id="tspan914"><tspan
           x="88.619827"
           y="218.4257"
           style="font-weight:bold;font-size:18.66666603px"
           id="tspan912">reactor</tspan></tspan></text>
    <text
       xml:space="preserve"
       style="font-style:normal;font-weight:normal;font-size:40px;line-height:1.25;font-family:sans-serif;letter-spacing:0px;word-spacing:0px;fill:#000000;fill-opacity:1;stroke:none"
       x="88.619827"
       y="244.15482"
       id="text922"><tspan
         sodipodi:role="line"
         x="88.619827"
         y="244.15482"
         id="tspan920"><tspan
           x="88.619827"
           y="244.15482"
           style="font-weight:bold;font-size:18.66666603px"
           id="tspan918">engines</tspan></tspan></text>
    <text
       xml:space="preserve"
       style="font-style:normal;font-weight:normal;font-size:40px;line-height:1.25;font-family:sans-serif;letter-spacing:0px;word-spacing:0px;fill:#000000;fill-opacity:1;stroke:none"
       x="88.619827"
       y="270.02225"
       id="text952"><tspan
         sodipodi:role="line"
         x="169.14717"
         y="270.02225"
         id="tspan950"
         style="font-size:18.66666667px"><tspan
           x="88.619827"
           y="270.02225"
           style="font-weight:bold;font-size:18.66666667px"
           id="tspan944">shuttle</tspan><tspan
           x="163.21358"
           y="270.02225"
           style="font-size:18.66666667px"
           id="tspan946"> </tspan><tspan
           x="169.14717"
           y="270.02225"
           style="font-weight:bold;font-size:18.66666667px"
           id="tspan948">bay</tspan></tspan></text>
    <text
       xml:space="preserve"
       style="font-style:normal;font-weight:normal;font-size:40px;line-height:1.25;font-family:sans-serif;letter-spacing:0px;word-spacing:0px;fill:#000000;fill-opacity:1;stroke:none"
       x="254.70638"
       y="154.10095"
       id="text958"><tspan
         sodipodi:role="line"
         x="254.70638"
         y="154.10095"
         id="tspan956"><tspan
           x="254.70638"
           y="154.10095"
           style="font-weight:bold;font-size:18.66666603px"
           id="tspan954">status</tspan></tspan></text>
    <text
       xml:space="preserve"
       style="font-style:normal;font-weight:normal;font-size:40px;line-height:1.25;font-family:sans-serif;letter-spacing:0px;word-spacing:0px;fill:#000000;fill-opacity:1;stroke:none"
       x="362.30072"
       y="154.10095"
       id="text964"><tspan
         sodipodi:role="line"
         x="362.30072"
         y="154.10095"
         id="tspan962"><tspan
           x="362.30072"
           y="154.10095"
           style="font-weight:bold;font-size:18.66666603px"
           id="tspan960">life forms</tspan></tspan></text>
    <text
       xml:space="preserve"
       style="font-style:normal;font-weight:normal;font-size:40px;line-height:1.25;font-family:sans-serif;letter-spacing:0px;word-spacing:0px;fill:#000000;fill-opacity:1;stroke:none"
       x="499.23898"
       y="154.10095"
       id="text1030"><tspan
         sodipodi:role="line"
         x="499.23898"
         y="154.10095"
         id="tspan1028"><tspan
           x="499.23898"
           y="154.10095"
           style="font-weight:bold;font-size:18.66666603px"
           id="tspan1026">security</tspan></tspan></text>
    <text
       xml:space="preserve"
       style="font-style:normal;font-weight:normal;font-size:40px;line-height:1.25;font-family:sans-serif;letter-spacing:0px;word-spacing:0px;fill:#000000;fill-opacity:1;stroke:none"
       x="254.62434"
       y="192.83493"
       id="text998"><tspan
         sodipodi:role="line"
         x="254.62434"
         y="192.83493"
         id="tspan996"><tspan
           x="254.62434"
           y="192.83493"
           style="font-size:18.66666603px"
           id="tspan994">OK</tspan></tspan></text>
    <text
       xml:space="preserve"
       style="font-style:normal;font-weight:normal;font-size:40px;line-height:1.25;font-family:sans-serif;letter-spacing:0px;word-spacing:0px;fill:#000000;fill-opacity:1;stroke:none"
       x="254.62434"
       y="219.11734"
       id="text1012"><tspan
         sodipodi:role="line"
         x="254.62434"
         y="219.11734"
         id="tspan1010"><tspan
           x="254.62434"
           y="219.11734"
           style="font-size:18.66666603px"
           id="tspan1008">OK</tspan></tspan></text>
    <text
       xml:space="preserve"
       style="font-style:normal;font-weight:normal;font-size:40px;line-height:1.25;font-family:sans-serif;letter-spacing:0px;word-spacing:0px;fill:#000000;fill-opacity:1;stroke:none"
       x="254.62434"
       y="244.15482"
       id="text1018"><tspan
         sodipodi:role="line"
         x="254.62434"
         y="244.15482"
         id="tspan1016"><tspan
           x="254.62434"
           y="244.15482"
           style="font-size:18.66666603px"
           id="tspan1014">OK</tspan></tspan></text>
    <text
       xml:space="preserve"
       style="font-style:normal;font-weight:normal;font-size:40px;line-height:1.25;font-family:sans-serif;letter-spacing:0px;word-spacing:0px;fill:#000000;fill-opacity:1;stroke:none"
       x="254.62434"
       y="270.02225"
       id="text1024"><tspan
         sodipodi:role="line"
         x="254.62434"
         y="270.02225"
         id="tspan1022"><tspan
           x="254.62434"
           y="270.02225"
           style="font-size:18.66666603px"
           id="tspan1020">OK</tspan></tspan></text>
    <text
       xml:space="preserve"
       style="font-style:normal;font-weight:normal;font-size:40px;line-height:1.25;font-family:sans-serif;letter-spacing:0px;word-spacing:0px;fill:#000000;fill-opacity:1;stroke:none"
       x="363.01166"
       y="192.83493"
       id="text970"><tspan
         sodipodi:role="line"
         x="363.01166"
         y="192.83493"
         id="tspan968"><tspan
           x="363.01166"
           y="192.83493"
           style="font-size:18.66666603px"
           id="tspan966">1</tspan></tspan></text>
    <text
       xml:space="preserve"
       style="font-style:normal;font-weight:normal;font-size:40px;line-height:1.25;font-family:sans-serif;letter-spacing:0px;word-spacing:0px;fill:#000000;fill-opacity:1;stroke:none"
       x="363.01166"
       y="219.11734"
       id="text980"><tspan
         sodipodi:role="line"
         x="363.01166"
         y="219.11734"
         id="tspan978"><tspan
           x="363.01166"
           y="219.11734"
           style="font-size:18.66666603px"
           id="tspan976">0</tspan></tspan></text>
    <text
       xml:space="preserve"
       style="font-style:normal;font-weight:normal;font-size:40px;line-height:1.25;font-family:sans-serif;letter-spacing:0px;word-spacing:0px;fill:#000000;fill-opacity:1;stroke:none"
       x="363.01166"
       y="244.15482"
       id="text986"><tspan
         sodipodi:role="line"
         x="363.01166"
         y="244.15482"
         id="tspan984"><tspan
           x="363.01166"
           y="244.15482"
           style="font-size:18.66666603px"
           id="tspan982">0</tspan></tspan></text>
    <text
       xml:space="preserve"
       style="font-style:normal;font-weight:normal;font-size:40px;line-height:1.25;font-family:sans-serif;letter-spacing:0px;word-spacing:0px;fill:#000000;fill-opacity:1;stroke:none"
       x="363.01166"
       y="270.02225"
       id="text992"><tspan
         sodipodi:role="line"
         x="363.01166"
         y="270.02225"
         id="tspan990"><tspan
           x="363.01166"
           y="270.02225"
           style="font-size:18.66666603px"
           id="tspan988">0</tspan></tspan></text>
    <text
       xml:space="preserve"
       style="font-style:normal;font-weight:normal;font-size:40px;line-height:1.25;font-family:sans-serif;letter-spacing:0px;word-spacing:0px;fill:#000000;fill-opacity:1;stroke:none"
       x="498.77615"
       y="192.83493"
       id="text1036"><tspan
         sodipodi:role="line"
         x="498.77615"
         y="192.83493"
         id="tspan1034"><tspan
           x="498.77615"
           y="192.83493"
           style="font-size:18.66666603px"
           id="tspan1032">red</tspan></tspan></text>
    <text
       xml:space="preserve"
       style="font-style:normal;font-weight:normal;font-size:40px;line-height:1.25;font-family:sans-serif;letter-spacing:0px;word-spacing:0px;fill:#000000;fill-opacity:1;stroke:none"
       x="498.77615"
       y="219.11734"
       id="text1042"><tspan
         sodipodi:role="line"
         x="498.77615"
         y="219.11734"
         id="tspan1040"><tspan
           x="498.77615"
           y="219.11734"
           style="font-size:18.66666603px"
           id="tspan1038">red</tspan></tspan></text>
    <text
       xml:space="preserve"
       style="font-style:normal;font-weight:normal;font-size:40px;line-height:1.25;font-family:sans-serif;letter-spacing:0px;word-spacing:0px;fill:#000000;fill-opacity:1;stroke:none"
       x="498.77615"
       y="244.15482"
       id="text1048"><tspan
         sodipodi:role="line"
         x="498.77615"
         y="244.15482"
         id="tspan1046"><tspan
           x="498.77615"
           y="244.15482"
           style="font-size:18.66666603px"
           id="tspan1044">red</tspan></tspan></text>
    <text
       xml:space="preserve"
       style="font-style:normal;font-weight:normal;font-size:40px;line-height:1.25;font-family:sans-serif;letter-spacing:0px;word-spacing:0px;fill:#000000;fill-opacity:1;stroke:none"
       x="498.77615"
       y="270.02225"
       id="text1054"><tspan
         sodipodi:role="line"
         x="498.77615"
         y="270.02225"
         id="tspan1052"><tspan
           x="498.77615"
           y="270.02225"
           style="font-size:18.66666603px"
           id="tspan1050">blue</tspan></tspan></text>
    <path
       sodipodi:nodetypes="ccccc"
       inkscape:connector-curvature="0"
       style="fill-rule:evenodd;stroke:#0055d4;stroke-width:2;stroke-linecap:butt;stroke-linejoin:round;stroke-dasharray:8, 6"
       id="path1050"
       d="m 482.22504,131.75731 h 129.8718 v 165.52088 h -129.8718 z" />
    <flowRoot
       xml:space="preserve"
       id="flowRoot1000"
       style="fill:black;fill-opacity:1;stroke:none;font-family:sans-serif;font-style:normal;font-weight:normal;font-size:40px;line-height:1.25;letter-spacing:0px;word-spacing:0px"><flowRegion
         id="flowRegion1002"><rect
           id="rect1004"
           width="66.12104"
           height="118.40922"
           x="188.40346"
           y="65.48703" /></flowRegion><flowPara
         id="flowPara1006"></flowPara></flowRoot>  </g>
</svg>
