<?xml version="1.0" encoding="UTF-8" standalone="no"?>
<!-- Created with Inkscape (http://www.inkscape.org/) -->

<svg
   xmlns:dc="http://purl.org/dc/elements/1.1/"
   xmlns:cc="http://creativecommons.org/ns#"
   xmlns:rdf="http://www.w3.org/1999/02/22-rdf-syntax-ns#"
   xmlns:svg="http://www.w3.org/2000/svg"
   xmlns="http://www.w3.org/2000/svg"
   xmlns:sodipodi="http://sodipodi.sourceforge.net/DTD/sodipodi-0.dtd"
   xmlns:inkscape="http://www.inkscape.org/namespaces/inkscape"
   width="210mm"
   height="120mm"
   viewBox="0 0 210 120"
   version="1.1"
   id="svg8"
   inkscape:version="0.92.5 (2060ec1f9f, 2020-04-08)"
   sodipodi:docname="title.svg"
   inkscape:export-filename="/home/kristian/projects/pandas_go_to_space/title.png"
   inkscape:export-xdpi="89.958336"
   inkscape:export-ydpi="89.958336">
  <defs
     id="defs2">
    <clipPath
       clipPathUnits="userSpaceOnUse"
       id="clipPath954">
      <rect
         style="fill:#80b940;fill-opacity:1;stroke:#b3d789;stroke-width:0.79374999;stroke-linecap:butt;stroke-linejoin:round;stroke-miterlimit:4;stroke-dasharray:none;stroke-dashoffset:0;stroke-opacity:1"
         id="rect956"
         width="208.64285"
         height="144.3869"
         x="-45.357143"
         y="79.285713"
         ry="2.1571612" />
    </clipPath>
  </defs>
  <sodipodi:namedview
     id="base"
     pagecolor="#efece1"
     bordercolor="#666666"
     borderopacity="1.0"
     inkscape:pageopacity="1"
     inkscape:pageshadow="2"
     inkscape:zoom="0.7"
     inkscape:cx="496.5341"
     inkscape:cy="438.99161"
     inkscape:document-units="mm"
     inkscape:current-layer="g4768"
     showgrid="false"
     inkscape:window-width="1848"
     inkscape:window-height="1016"
     inkscape:window-x="72"
     inkscape:window-y="27"
     inkscape:window-maximized="1" />
  <metadata
     id="metadata5">
    <rdf:RDF>
      <cc:Work
         rdf:about="">
        <dc:format>image/svg+xml</dc:format>
        <dc:type
           rdf:resource="http://purl.org/dc/dcmitype/StillImage" />
        <dc:title />
      </cc:Work>
    </rdf:RDF>
  </metadata>
  <g
     inkscape:label="Layer 1"
     inkscape:groupmode="layer"
     id="layer1"
     transform="translate(0,-177)">
    <g
       id="g4768"
       transform="translate(-2.6998731,-13.607143)">
      <g
         style="fill:#3964c6;fill-opacity:1"
         transform="matrix(0.06583443,0,0,0.06583443,90.946236,214.40761)"
         id="g1015">
        <path
           style="fill:#3964c6;fill-opacity:1"
           inkscape:connector-curvature="0"
           d="m 395.73,278.4 -136.54,-163.2 -1.0664,-1.0664 c -61.867,-61.867 -142.93,-100.27 -229.33,-108.8 -6.4023,0 -12.801,2.1328 -17.066,6.4023 -4.2656,4.2656 -6.3984,10.668 -6.3984,17.066 8.5352,86.398 46.934,167.46 107.73,229.33 l 1.0664,1.0664 164.26,135.47 c 4.2656,3.1992 8.5352,5.332 13.867,5.332 5.3318,0 10.668,-2.1328 14.934,-6.3984 l 28.801,-28.801 3.1992,3.1992 c 4.2656,4.2656 9.6016,6.3984 14.934,6.3984 5.332,0 10.668,-2.1328 14.934,-6.3984 8.5352,-8.5352 8.5352,-21.332 0,-29.867 l -3.1992,-3.1992 28.801,-28.801 c 7.4648,-7.4648 7.4648,-19.199 1.0664,-27.734 z"
           id="path1001" />
        <path
           style="fill:#3964c6;fill-opacity:1"
           inkscape:connector-curvature="0"
           d="m 362.67,420.27 22.398,23.469"
           id="path1003" />
        <path
           style="fill:#3964c6;fill-opacity:1"
           inkscape:connector-curvature="0"
           d="m 385.07,464 c -5.332,0 -10.668,-2.1328 -14.934,-6.3984 l -23.465,-23.465 c -8.5352,-8.5352 -8.5352,-21.332 0,-29.867 8.5352,-8.5352 21.332,-8.5352 29.867,0 l 23.465,23.465 c 8.5352,8.5352 8.5352,21.332 0,29.867 -4.2656,4.2656 -9.6016,6.3984 -14.934,6.3984 z"
           id="path1005" />
        <path
           style="fill:#3964c6;fill-opacity:1"
           inkscape:connector-curvature="0"
           d="m 420.27,361.6 23.469,23.465"
           id="path1007" />
        <path
           style="fill:#3964c6;fill-opacity:1"
           inkscape:connector-curvature="0"
           d="m 443.73,406.4 c -5.332,0 -10.668,-2.1328 -14.934,-6.3984 l -23.469,-23.465 c -8.5352,-8.5352 -8.5352,-21.332 0,-29.867 8.5352,-8.5352 21.332,-8.5352 29.867,0 l 23.465,23.465 c 8.5352,8.5352 8.5352,21.332 0,29.867 -4.2656,4.2656 -9.5977,6.3984 -14.93,6.3984 z"
           id="path1009" />
        <path
           style="fill:#3964c6;fill-opacity:1"
           inkscape:connector-curvature="0"
           d="m 118.4,315.73 c -18.133,56.535 -1.0664,122.67 49.066,183.46 4.2656,5.332 9.6016,7.4648 16,7.4648 h 1.0664 c 6.3984,0 12.801,-4.2656 16,-9.6016 l 45.867,-73.602 z"
           id="path1011" />
        <path
           style="fill:#3964c6;fill-opacity:1"
           inkscape:connector-curvature="0"
           d="m 501.33,170.67 c -28.801,-35.199 -69.332,-56.535 -114.13,-60.801 -24.531,-3.1992 -49.066,0 -71.465,7.4648 l 107.73,129.07 72.535,-45.867 c 5.332,-3.1992 8.5352,-8.5352 9.6016,-13.867 1.0625,-5.332 -0.004,-11.73 -4.2734,-15.996 z"
           id="path1013" />
      </g>
      <text
         xml:space="preserve"
         style="font-style:normal;font-weight:normal;font-size:10.58333302px;line-height:1.25;font-family:sans-serif;letter-spacing:0px;word-spacing:0px;fill:#000000;fill-opacity:1;stroke:none;stroke-width:0.26458332"
         x="41.801945"
         y="269.03912"
         id="text838"><tspan
           sodipodi:role="line"
           x="41.801945"
           y="269.03912"
           id="tspan836"
           style="font-style:normal;font-variant:normal;font-weight:bold;font-stretch:normal;font-family:sans-serif;-inkscape-font-specification:'sans-serif Bold';stroke-width:0.26458332">PANDAS GO TO SPACE <tspan
   x="41.801945"
   y="269.03912"
   style="font-style:normal;font-variant:normal;font-weight:bold;font-stretch:normal;font-size:14.11111164px;font-family:sans-serif;-inkscape-font-specification:'sans-serif Bold';stroke-width:0.26458332"
   id="tspan834" /></tspan></text>
      <text
         xml:space="preserve"
         style="font-style:normal;font-weight:normal;font-size:10.58333302px;line-height:1.25;font-family:sans-serif;letter-spacing:0px;word-spacing:0px;fill:#000000;fill-opacity:1;stroke:none;stroke-width:0.26458332"
         x="31.219633"
         y="286.1803"
         id="text844"><tspan
           sodipodi:role="line"
           x="31.219633"
           y="286.1803"
           id="tspan842"
           style="font-size:9.17222309px;stroke-width:0.26458332"><tspan
             x="31.219633"
             y="286.1803"
             style="font-weight:bold;font-size:9.17222309px;fill:#3964c6;fill-opacity:1;stroke-width:0.26458332"
             id="tspan840">Python Data Analysis Tutorial</tspan></tspan></text>
      <text
         xml:space="preserve"
         style="font-style:normal;font-weight:normal;font-size:10.58333302px;line-height:1.25;font-family:sans-serif;letter-spacing:0px;word-spacing:0px;fill:#000000;fill-opacity:1;stroke:none;stroke-width:0.26458332"
         x="120.25047"
         y="264.87201"
         id="text26"><tspan
           sodipodi:role="line"
           id="tspan24"
           x="120.25047"
           y="264.87201"
           style="stroke-width:0.26458332"> </tspan></text>
    </g>
  </g>
</svg>
